# File created by Blade
# Date/Time:  Tue Jan 27 18:02:00 2015
#---------------------------------------------------------
:version 1.10
:name HOM
:units
  mass 1.0
  length 1.000000
  angle deg
:documentation
     Acclaim Skeleton File
:root
   axis xyz
   order TX TY TZ RX RY RZ
   position 0.000000 0.000000 0.000000
   orientation 0 0 0
:bonedata
   begin
      id 1
      name Spine_dum
      direction 0.000000 1.000000 0.000000
      length 5.195262
      axis 0.0 0.0 0.0 xyz
   end
   begin
      id 2
      name LeftUpLeg_dum
      direction 1.000000 0.000000 0.000000
      length 3.351363
      axis 0.0 0.0 0.0 xyz
   end
   begin
      id 3
      name RightUpLeg_dum
      direction -1.000000 0.000000 0.000000
      length 3.351363
      axis 0.0 0.0 0.0 xyz
   end
   begin
      id 4
      name Spine
      direction 0.000000 1.000000 0.000000
      length 0.000000
      axis 0.0 0.0 0.0 xyz
      dof rx ry rz
   end
   begin
      id 5
      name Spine_dum1
      direction 0.000000 1.000000 0.000000
      length 15.653875
      axis 0.0 0.0 0.0 xyz
   end
   begin
      id 6
      name Spine_dum2
      direction 0.000000 1.000000 0.000000
      length 10.329768
      axis 0.0 0.0 0.0 xyz
   end
   begin
      id 7
      name Spine_dum3
      direction 0.000000 1.000000 0.000000
      length 10.329768
      axis 0.0 0.0 0.0 xyz
   end
   begin
      id 8
      name Head
      direction 0.000000 1.000000 0.000000
      length 4.527550
      axis 0.0 0.0 0.0 xyz
      dof rx ry rz
   end
   begin
      id 9
      name LeftShoulder
      direction 1.000000 0.000000 0.000000
      length 6.996006
      axis 0.0 0.0 -90.0 xyz
      dof rx ry rz
   end
   begin
      id 10
      name LeftArm
      direction 1.000000 0.000000 0.000000
      length 10.209302
      axis 0.0 0.0 -90.0 xyz
      dof rx ry rz
   end
   begin
      id 11
      name LeftForeArm
      direction 1.000000 0.000000 0.000000
      length 8.563163
      axis 0.0 0.0 -90.0 xyz
      dof ry rz rx
   end
   begin
      id 12
      name LeftHand
      direction 0.000000 0.000000 0.000000
      length 0.000000
      axis 0.0 0.0 -90.0 xyz
      dof rx ry rz
   end
   begin
      id 13
      name LeftHand_dum1
      direction 0.000000 0.000000 0.000000
      length 0.000000
      axis 0.0 0.0 -90.0 xyz
   end
   begin
      id 14
      name LeftHand_dum2
      direction 1.000000 0.000000 0.000000
      length 3.937000
      axis 0.0 0.0 -90.0 xyz
   end
   begin
      id 15
      name LeftHandThumb1
      direction 0.000000 0.000000 1.000000
      length 3.937000
      axis 0.0 0.0 -90.0 xyz
      dof rx rz ry
   end
   begin
      id 16
      name RightShoulder
      direction -1.000000 0.000000 0.000000
      length 6.996006
      axis 0.0 0.0 90.0 xyz
      dof rx ry rz
   end
   begin
      id 17
      name RightArm
      direction -1.000000 0.000000 0.000000
      length 10.209302
      axis 0.0 0.0 90.0 xyz
      dof rx ry rz
   end
   begin
      id 18
      name RightForeArm
      direction -1.000000 0.000000 0.000000
      length 8.563163
      axis 0.0 0.0 90.0 xyz
      dof ry rz rx
   end
   begin
      id 19
      name RightHand
      direction 0.000000 0.000000 0.000000
      length 0.000000
      axis 0.0 0.0 90.0 xyz
      dof rx ry rz
   end
   begin
      id 20
      name RightHand_dum1
      direction 0.000000 0.000000 0.000000
      length 0.000000
      axis 0.0 0.0 90.0 xyz
   end
   begin
      id 21
      name RightHand_dum2
      direction -1.000000 0.000000 0.000000
      length 3.937000
      axis 0.0 0.0 90.0 xyz
   end
   begin
      id 22
      name RightHandThumb1
      direction 0.000000 0.000000 1.000000
      length 3.937000
      axis 0.0 0.0 90.0 xyz
      dof rx rz ry
   end
   begin
      id 23
      name LeftUpLeg
      direction 0.000000 -1.000000 0.000000
      length 16.346831
      axis 0.0 0.0 0.0 xyz
      dof rx ry rz
   end
   begin
      id 24
      name LeftLeg
      direction 0.000000 -1.000000 0.000000
      length 13.959795
      axis 0.0 0.0 0.0 xyz
      dof rx ry rz
   end
   begin
      id 25
      name LeftFoot
      direction 0.000000 -0.258819 0.965926
      length 5.165550
      axis 15.0 0.0 0.0 xyz
      dof rx ry rz
   end
   begin
      id 26
      name LeftToeBase
      direction 0.000000 0.000000 1.000000
      length 2.952750
      axis 0.0 0.0 0.0 xyz
      dof rx ry rz
   end
   begin
      id 27
      name RightUpLeg
      direction 0.000000 -1.000000 0.000000
      length 16.346831
      axis 0.0 0.0 0.0 xyz
      dof rx ry rz
   end
   begin
      id 28
      name RightLeg
      direction 0.000000 -1.000000 0.000000
      length 13.959795
      axis 0.0 0.0 0.0 xyz
      dof rx ry rz
   end
   begin
      id 29
      name RightFoot
      direction 0.000000 -0.258819 0.965926
      length 5.165550
      axis 15.0 0.0 0.0 xyz
      dof rx ry rz
   end
   begin
      id 30
      name RightToeBase
      direction 0.000000 0.000000 1.000000
      length 2.952750
      axis 0.0 0.0 0.0 xyz
      dof rx ry rz
   end
:hierarchy
   begin
      root Spine_dum LeftUpLeg_dum RightUpLeg_dum
      Spine_dum Spine
      LeftUpLeg_dum LeftUpLeg
      RightUpLeg_dum RightUpLeg
      Spine Spine_dum1 Spine_dum2 Spine_dum3
      Spine_dum1 Head
      Spine_dum2 LeftShoulder
      Spine_dum3 RightShoulder
      LeftShoulder LeftArm
      LeftArm LeftForeArm
      LeftForeArm LeftHand
      LeftHand LeftHand_dum1 LeftHand_dum2
      LeftHand_dum1 LeftHandThumb1
      RightShoulder RightArm
      RightArm RightForeArm
      RightForeArm RightHand
      RightHand RightHand_dum1 RightHand_dum2
      RightHand_dum1 RightHandThumb1
      LeftUpLeg LeftLeg
      LeftLeg LeftFoot
      LeftFoot LeftToeBase
      RightUpLeg RightLeg
      RightLeg RightFoot
      RightFoot RightToeBase
   end

# File created by Blade
# Date/Time:  Tue Jan 27 18:01:49 2015
# Frame Rate: 120.000 fps
#------------------------------------------------------
:FULLY-SPECIFIED
:DEGREES
1284
root -1.555752 31.933757 -5.960250 8.154650 24.041143 4.988979
Spine -7.353890 -5.138520 -3.995370
Head 8.572411 -14.854980 -4.472503
LeftShoulder -11.692888 15.070366 6.244736
LeftArm 25.852705 41.788292 -70.528445
LeftForeArm -2.111823 -0.000000 13.138909
LeftHand -11.150629 -0.000000 -6.291358
LeftHandThumb1 -26.253704 0.000000 33.147579
RightShoulder -17.210680 37.282741 -53.909353
RightArm 113.536000 53.146335 129.010062
RightForeArm 47.121700 -0.000000 155.152740
RightHand 11.639555 -0.000000 17.058270
RightHandThumb1 -24.326973 -0.000000 -32.862282
LeftUpLeg -3.834685 -10.467878 -0.065873
LeftLeg 0.246881 -0.000000 -0.000000
LeftFoot -12.562547 10.604606 -23.873618
LeftToeBase 8.457685 -0.000000 -0.000000
RightUpLeg 3.639837 -13.435462 -2.885806
RightLeg -3.875334 -0.000000 0.000000
RightFoot -17.544419 -20.452782 11.754097
RightToeBase 5.300833 -0.000000 -0.000000
1285
root -1.553976 31.929699 -5.954133 8.170221 24.045956 4.986653
Spine -7.389865 -4.866992 -4.038246
Head 8.644896 -15.251274 -4.420699
LeftShoulder -11.459418 15.012148 6.367656
LeftArm 25.920643 41.993061 -70.501912
LeftForeArm -2.217534 -0.000000 13.069473
LeftHand -11.185559 0.000000 -6.461300
LeftHandThumb1 -26.253704 0.000000 33.147579
RightShoulder -17.359793 39.514546 -54.086367
RightArm 112.642839 53.985833 127.762401
RightForeArm 47.651544 -0.000000 155.542583
RightHand 11.671929 -0.000000 17.455590
RightHandThumb1 -24.326973 -0.000000 -32.862282
LeftUpLeg -3.827433 -10.476475 -0.061257
LeftLeg 0.221950 -0.000000 -0.000000
LeftFoot -12.597777 10.606015 -23.862355
LeftToeBase 8.487166 -0.000000 -0.000000
RightUpLeg 3.653347 -13.451504 -2.881792
RightLeg -3.909216 -0.000000 0.000000
RightFoot -17.567281 -20.426557 11.771740
RightToeBase 5.299971 -0.000000 -0.000000
1286
root -1.554836 31.929174 -5.948241 8.173069 24.056430 4.982635
Spine -7.426297 -4.828129 -4.062366
Head 8.729729 -15.416808 -4.345466
LeftShoulder -11.425611 14.970474 6.426428
LeftArm 25.931099 42.131175 -70.511494
LeftForeArm -2.284241 0.000000 13.009168
LeftHand -11.134596 -0.000000 -6.543298
LeftHandThumb1 -26.253704 0.000000 33.147579
RightShoulder -17.427197 40.052219 -54.040056
RightArm 112.995077 53.811017 128.331288
RightForeArm 47.460873 -0.000000 155.752951
RightHand 11.583954 0.000000 16.494769
RightHandThumb1 -24.326973 -0.000000 -32.862282
LeftUpLeg -3.810228 -10.521325 -0.048071
LeftLeg 0.193836 -0.000000 -0.000000
LeftFoot -12.609966 10.635695 -23.882518
LeftToeBase 8.477777 -0.000000 -0.000000
RightUpLeg 3.672599 -13.481995 -2.874427
RightLeg -3.935938 -0.000000 0.000000
RightFoot -17.549365 -20.412430 11.756899
RightToeBase 5.290423 -0.000000 -0.000000
1287
root -1.557393 31.929686 -5.944954 8.178980 24.044969 4.967327
Spine -7.457421 -4.784077 -4.081963
Head 8.763861 -15.537712 -4.238015
LeftShoulder -11.407435 14.919008 6.490168
LeftArm 25.901833 42.211736 -70.567944
LeftForeArm -2.323681 -0.000000 12.974248
LeftHand -11.117205 -0.000000 -6.608699
LeftHandThumb1 -26.253704 0.000000 33.147579
RightShoulder -17.460392 39.665548 -53.929728
RightArm 114.101053 53.206453 129.895918
RightForeArm 46.409759 -0.000000 155.580808
RightHand 11.598338 -0.000000 15.876896
RightHandThumb1 -24.326973 -0.000000 -32.862282
LeftUpLeg -3.806746 -10.493380 -0.026959
LeftLeg 0.171396 -0.000000 -0.000000
LeftFoot -12.598303 10.610164 -23.909790
LeftToeBase 8.467714 -0.000000 -0.000000
RightUpLeg 3.660774 -13.481798 -2.852074
RightLeg -3.933039 -0.000000 0.000000
RightFoot -17.541387 -20.400671 11.760897
RightToeBase 5.284613 -0.000000 -0.000000
1288
root -1.557251 31.929760 -5.940259 8.184699 24.062798 4.962858
Spine -7.479231 -4.705471 -4.097865
Head 8.754135 -15.688300 -4.161876
LeftShoulder -11.339775 14.857682 6.561068
LeftArm 25.853269 42.271430 -70.647626
LeftForeArm -2.307216 -0.000000 12.950182
LeftHand -11.078612 -0.000000 -6.671054
LeftHandThumb1 -26.253704 0.000000 33.147579
RightShoulder -17.478313 38.839077 -53.921101
RightArm 115.425424 52.589598 131.819616
RightForeArm 45.892874 -0.000000 155.025516
RightHand 11.854902 -0.000000 16.299662
RightHandThumb1 -24.326973 -0.000000 -32.862282
LeftUpLeg -3.800462 -10.531034 -0.015607
LeftLeg 0.156127 -0.000000 -0.000000
LeftFoot -12.602593 10.633167 -23.901584
LeftToeBase 8.466977 -0.000000 -0.000000
RightUpLeg 3.673776 -13.512272 -2.845449
RightLeg -3.951256 -0.000000 0.000000
RightFoot -17.530571 -20.373148 11.769000
RightToeBase 5.311419 -0.000000 -0.000000
1289
root -1.554719 31.929781 -5.935122 8.196668 24.085410 4.967103
Spine -7.504843 -4.679791 -4.104572
Head 8.707493 -15.760168 -4.085739
LeftShoulder -11.363779 14.838375 6.606140
LeftArm 25.857109 42.292118 -70.701493
LeftForeArm -2.083705 -0.000000 12.944835
LeftHand -11.326474 -0.000000 -7.485697
LeftHandThumb1 -26.253704 0.000000 33.147579
RightShoulder -17.456919 38.414964 -54.011674
RightArm 115.851271 52.480180 132.707050
RightForeArm 46.543588 0.000000 154.272403
RightHand 11.769610 -0.000000 17.010449
RightHandThumb1 -24.326973 -0.000000 -32.862282
LeftUpLeg -3.791167 -10.573346 -0.017324
LeftLeg 0.129972 -0.000000 -0.000000
LeftFoot -12.606533 10.668555 -23.898031
LeftToeBase 8.472438 -0.000000 -0.000000
RightUpLeg 3.686441 -13.539596 -2.849864
RightLeg -3.966837 -0.000000 0.000000
RightFoot -17.525047 -20.362877 11.774875
RightToeBase 5.312202 -0.000000 -0.000000
